<svg width="26" height="20" viewBox="0 0 26 20" fill="none" xmlns="http://www.w3.org/2000/svg">
<path fill-rule="evenodd" clip-rule="evenodd" d="M2.83767 2.5399C2.39645 2.1499 2.39645 1.5199 2.83767 1.1299C3.2789 0.739902 4.00296 0.739902 4.44418 1.1299L22.8964 17.4599C23.3376 17.8499 23.3376 18.4799 22.8964 18.8699C22.4552 19.2599 21.7424 19.2599 21.3012 18.8699L18.224 16.1499C16.7079 16.6699 15.0675 16.9699 13.3479 16.9699C7.69114 16.9699 2.8603 13.8599 0.903076 9.4699C1.77421 7.4999 3.23364 5.7999 5.06642 4.5099L2.83767 2.5399ZM19.0046 9.4699C19.0046 6.7099 16.4704 4.4699 13.3479 4.4699C12.7709 4.4699 12.2166 4.5699 11.6848 4.7099L9.22981 2.5399C10.5309 2.1699 11.9111 1.9699 13.3479 1.9699C19.0046 1.9699 23.8355 5.0799 25.7927 9.4599C25.0121 11.2199 23.7676 12.7599 22.195 13.9899L18.7331 10.9299C18.8915 10.4699 19.0046 9.9799 19.0046 9.4699ZM13.3479 14.4699C10.2253 14.4699 7.69114 12.2299 7.69114 9.4699C7.69114 8.6999 7.89478 7.9699 8.2455 7.3299L10.0217 8.8999C9.98777 9.0799 9.95383 9.2699 9.95383 9.4699C9.95383 11.1299 11.4698 12.4699 13.3479 12.4699C13.5741 12.4699 13.7778 12.4399 13.9927 12.3999L15.7689 13.9699C15.0336 14.2899 14.219 14.4699 13.3479 14.4699ZM16.708 9.1399C16.5383 7.7399 15.2938 6.6499 13.7212 6.4999L16.708 9.1399Z" fill="#BDBDBE"/>
</svg>
