<svg width="18" height="18" viewBox="0 0 18 18" fill="none" xmlns="http://www.w3.org/2000/svg">
<path d="M5.25 4.5H17.25C17.4489 4.5 17.6397 4.42098 17.7803 4.28033C17.921 4.13968 18 3.94891 18 3.75C18 3.55109 17.921 3.36032 17.7803 3.21967C17.6397 3.07902 17.4489 3 17.25 3H5.25C5.05109 3 4.86032 3.07902 4.71967 3.21967C4.57902 3.36032 4.5 3.55109 4.5 3.75C4.5 3.94891 4.57902 4.13968 4.71967 4.28033C4.86032 4.42098 5.05109 4.5 5.25 4.5Z" fill="#99C63C"/>
<path d="M17.25 8.25H5.25C5.05109 8.25 4.86032 8.32902 4.71967 8.46967C4.57902 8.61032 4.5 8.80109 4.5 9C4.5 9.19891 4.57902 9.38968 4.71967 9.53033C4.86032 9.67098 5.05109 9.75 5.25 9.75H17.25C17.4489 9.75 17.6397 9.67098 17.7803 9.53033C17.921 9.38968 18 9.19891 18 9C18 8.80109 17.921 8.61032 17.7803 8.46967C17.6397 8.32902 17.4489 8.25 17.25 8.25Z" fill="#99C63C"/>
<path d="M17.25 13.5H5.25C5.05109 13.5 4.86032 13.579 4.71967 13.7197C4.57902 13.8603 4.5 14.0511 4.5 14.25C4.5 14.4489 4.57902 14.6397 4.71967 14.7803C4.86032 14.921 5.05109 15 5.25 15H17.25C17.4489 15 17.6397 14.921 17.7803 14.7803C17.921 14.6397 18 14.4489 18 14.25C18 14.0511 17.921 13.8603 17.7803 13.7197C17.6397 13.579 17.4489 13.5 17.25 13.5Z" fill="#99C63C"/>
<path d="M1.5 5.25C2.32843 5.25 3 4.57843 3 3.75C3 2.92157 2.32843 2.25 1.5 2.25C0.671573 2.25 0 2.92157 0 3.75C0 4.57843 0.671573 5.25 1.5 5.25Z" fill="#99C63C"/>
<path d="M1.5 10.5C2.32843 10.5 3 9.82843 3 9C3 8.17157 2.32843 7.5 1.5 7.5C0.671573 7.5 0 8.17157 0 9C0 9.82843 0.671573 10.5 1.5 10.5Z" fill="#99C63C"/>
<path d="M1.5 15.75C2.32843 15.75 3 15.0784 3 14.25C3 13.4216 2.32843 12.75 1.5 12.75C0.671573 12.75 0 13.4216 0 14.25C0 15.0784 0.671573 15.75 1.5 15.75Z" fill="#99C63C"/>
</svg>
